<?xml version="1.0" encoding="utf-8"?>
<!-- Generator: Adobe Illustrator 23.0.3, SVG Export Plug-In . SVG Version: 6.00 Build 0)  -->
<svg version="1.1" id="Layer_1" xmlns="http://www.w3.org/2000/svg" xmlns:xlink="http://www.w3.org/1999/xlink" x="0px" y="0px"
	 viewBox="0 0 334.3 317.3" style="enable-background:new 0 0 334.3 317.3;" xml:space="preserve">
<style type="text/css">
	.st0{fill:#3C2760;}
	.st1{fill:#523F81;}
	.st2{fill:#240D3E;}
	.st3{fill:#351F55;}
	.st4{fill:#6C64A5;}
	.st5{fill:#4C6380;}
	.st6{fill:#ABB8CE;}
	.st7{fill:#2C60AC;}
	.st8{fill:#6A7D99;}
</style>
<g>
	<path class="st0" d="M179.8,91.4c4.5,6.3,9.8,18.5,9.8,18.5c3.8-4.5,5.4-16.6-0.7-26.9c-3.6-6-9.6-14.7-21.7-13.4l2.5,8.9
		C169.7,78.5,175.3,85.1,179.8,91.4z"/>
	<path class="st1" d="M314.4,132.6c0.2-1,0.4-2.1,0.6-3.1c2.9-18.3,0-41.7-16-53.4c-0.8-0.6-2.8-0.4-2.6,1c1,10,6.1,18.8,7.4,28.7
		c0.5,3.9,0.3,7.8-0.4,11.6c-4.1-4-8.9-7.1-14.7-8.1c-6.3-1.1-13.2-0.2-19.8,1.7c-2.1-5.2-5.5-9.2-11.1-11.5
		c-7.4-3.1-15.4-3.2-21.7-9c-10.4-9.6-10-24.7-2.2-34.6c1.8-2.3,3.7-4.4,6.5-5.8c2.8-1.4,5.8-1.2,8.1-2.6c1.6-1,0.3-2.5-0.4-2.6
		c-4.6-0.6-8.8-0.3-12.7,0.9c-18.4,5.5-27.1,29-15.6,46.8c7.3,11.3,21.8,15.8,28,27.9c0.1,0.2,0.2,0.4,0.3,0.6
		c-13.1,10.2-19,26.8-13.3,42.4c-6.5,2.5-16.1,3.3-22.5-0.5c-7.8-4.6-8.1-13.6-9.8-22c-2.3-11.3-7-31.7-17.5-42.8
		c-13.9-14.7-6-51.7-60.7-83.5c-10.4-6-53.8-25.2-95.3,3.9c-27.3,19.1-29.6,64.1-4.9,86c2.9,2.5,6,4.7,9.2,6.8
		c1.7,4.2,3.1,8.3,3.4,12.6c1,16-16.5,25.7-15.4,42.2c0.8,12.3,9.2,23.4,20.3,28.4c1,0.4,1.9,0.8,2.9,1.2c-0.7,2.1-1.3,4.3-2.7,6.2
		c-3.6,4.7-9.3,6.9-15,6.7c-10.6-0.3-19.6-7.1-28.3-12.4c-13.3-8-27.4-11.3-42.5-6.5c-15.4,4.8-24,15.1-32.9,27.8
		c-6.7,9.5-17.6,17.8-28.4,8.6c-4.1-3.5-7.2-8.6-8.2-13.9c-1.1-5.8,2.8-15.5,9.3-13.1c6.5,2.3,4.6,11.8-3.3,8.9
		c-0.3-0.1-1.2,2.1,2.2,3.9c6.8,3.6,10.5-2.2,10.8-6.6c0.3-4.6-2.8-10.1-8.5-12.5c-5.8-2.5-12.9-0.5-17.1,3.6
		c-12.5,12.6-0.7,35.2,11.9,42.9c7.1,4.3,16.1,5.6,24,2.7c8.4-3.1,13.5-10.5,19.5-16.8c7.9-8.3,18.5-14.7,30.4-14.1
		c13.7,0.6,19.2,10.4,28,18.9c10.6,10.3,27.6,11.7,40.1,4.6l-0.4,5c-1.6,11.5,0.5,32,5.7,42.6c6,12.2,17.8,21.4,31.3,23.3
		c14.3,2,28.8-3.9,37.3-15.6c4.4-6,7.2-13,10-19.8c2.6-6.2,10.4-24.5,18.5-24.5c15.7,0,14.9,19.6,19.6,29.8
		c3.7,8,7.6,15.2,13.7,21.7c12.3,13,31.1,18.2,48.7,16c19-2.3,34.4-11.7,47.1-25.7c13.3-14.7,13.8-33.7,10.1-52.1
		c0.8-0.1,1.5-0.2,2.1-0.3c5.3-0.6,10.4-2.1,15.2-4.4c10.5-5.1,19.4-13.7,25.2-23.8C330.6,184,327,154.7,314.4,132.6z M48,166.6
		c-5-7.9-0.4-15.6,2.8-23.1c3.6-8.4,4.8-16.6,1.5-23.7c1.5,0.6,9.5,3.9,11,4.5c9,3.3,10.6,3.4,19.4,7.5C81.6,141.9,80.4,152,75,161
		c-4,6.6-10.1,10.2-16.9,12.6C54.3,173,50.8,171.1,48,166.6z M88.6,249.1c-3.3,2.7-10.2,2.9-14.7-7.6S69,226.4,69,226.4
		c0.7-0.2,10.2-1.1,16,5.3C89.5,236.7,93,245.5,88.6,249.1z M273.5,130.8c13.6,0.8,18.3,13.1,18.7,13.8c-4.5,5.5-13.3,12-20.4,12.9
		C274.4,149.6,274.3,139.5,273.5,130.8z M228.3,274c-9.4,0.1-17.6-5-24.1-11.3c-7.1-6.9-13.4-16.7-15.6-26.9c0-0.2,0-0.3,0-0.5
		c0.9-6.8,7.4-8.6,13.3-7.1c4.5,1.1,8.4,3,12.9,4c-2.9,9.3-0.1,20.1,8,26.1c7.9,5.9,18.1,5.5,26.3,0.9
		C246.5,268,237.4,273.9,228.3,274z M249.2,208.2c-1.4-0.1-2.8-0.2-4.1-0.4c-2.6-9.3,2.3-17,8.6-24.3c12.3,5,34.3,1.8,42-7.4
		C290.7,194.2,273.8,209.3,249.2,208.2z"/>
	<path class="st2" d="M249.6,147.6c0,0,3.7,5.7,7.2,7.7c8.6,4.9,15,3.3,15,3.3c2.6-7.9,2.8-19.5,2-28.2c0,0-10.4,1.6-14.6,4.3
		C254.9,137.4,249.6,147.6,249.6,147.6z"/>
	<path class="st3" d="M219.8,92.5c7.3,11.3,21.8,15.8,28,27.9c0.1,0.2,0.2,0.4,0.3,0.6c3.8-2.7,10.4-6.6,20.7-10.1
		c-2.1-5.2-5.5-9.2-11.1-11.5c-7.4-3.1-15.4-3.2-21.7-9c-10.4-9.6-10-24.7-2.2-34.6c1.8-2.3,3.7-4.4,6.5-5.8
		c2.8-1.4,5.8-1.2,8.1-2.6c1.6-1,0.3-2.5-0.4-2.6c-4.6-0.6-8.8-0.3-12.7,0.9C217,51.2,208.3,74.8,219.8,92.5z"/>
	<path class="st3" d="M249.6,146.5c0,0,4.9,9.4,11.8,10.9c8.8,2,16.5-1.3,22.6-6.3c6.2-5,8.2-7.8,8.2-7.8s6.5,16.2,6,23
		c0,0-8,9.7-18.7,10.9c-10.7,1.2-26.4-0.5-30.2-11.2C245.4,155.4,249.6,146.5,249.6,146.5z"/>
	<path class="st2" d="M298.5,155.6c-3.3-15.5-15.5-30.2-33.7-25.7c-15.6,3.8-26.1,27.1-14.6,40.1c9.6,10.9,34.7,12.5,43.3,0.5
		c0.2-0.3,0.4-1.8,0.1-1.6c-9.7,10.7-35,10.7-42.4-4c-8.4-16.6,7-35.3,24-32.8c14.9,2.2,19.6,19.4,21,32.2
		c1.6,14.8-7.2,28.8-17.8,36.1c-1,0.7,3.3-0.9,4.3-1.6C299,189.6,302.3,173.5,298.5,155.6z"/>
	<path class="st3" d="M221.3,222.3c-10.3-6-22.1-16.5-27.8-26.2c-9.3-16.1-8.3-39.6-15-42.2c-2.5,2.2,2.6,24.1,2.8,41
		c0.2,21.5,2.6,24.1,7.3,40.8c0.9-6.8,7.4-8.6,13.3-7.1c4.5,1.1,8.4,3,12.9,4C217.1,227.4,219.1,224.5,221.3,222.3z"/>
	<path class="st3" d="M318.5,141.2c-1.3-3-1.9-5-5.2-10.6c-3.3-5.6-10-14.1-10.2-13.2c-4.1-4-8.9-7.1-14.7-8.1
		c-1.1-0.2-2.2-0.3-3.3-0.4c2.2,1.3,5.3,1.2,10.7,5.2c23.6,17.4,23.3,57.6,19.6,72.4c-5.1,20.5-24.3,33.5-45.3,40.3
		c1.8,2.6,3.2,5.5,4.3,8.6l0.5-0.1c0.8-0.1,1.5-0.2,2.1-0.3c5.3-0.6,10.4-2.1,15.2-4.4c10.5-5.1,19.4-13.7,25.2-23.8
		C328.8,186.8,327.5,162,318.5,141.2z"/>
	<path class="st3" d="M248.5,230c-2.5-0.9-7.1-1-10.2,2.3c-3.8,4-5.8,10.4-1.5,15.1c1.9,2.1,6.1,4,8.8,0.8c2.2-2.7,0.4-6.4-2-7.9
		c-0.2-0.1-0.5,0.1-0.4,0.3c0.7,1.1,1.1,1.6,1.4,3.6c-0.2,2.8-4.3,5.8-7.1-0.7c-0.5-1.1-1.4-4.6,1.5-8.9c0.8-1.1,4.5-4.4,8.6-1.6
		c4.7,3.2,6.7,8.6,5.4,13c-4.5,15.3-23.8,14.8-31.1,4.9c-6.9-9.4-1.4-21,4-27.8c2.6-3.3,6.3-5.9,10.9-8.5c0,0-1.4,0.1-3.5,0.9
		c-19.5,7.1-31.4,30.3-13.3,44.6c12.3,9.8,34.3,2.9,36.6-10.9C258.4,242.1,256.7,232.9,248.5,230z"/>
	<path class="st3" d="M276.1,242.3c0,0,0,11.9-5.2,23.9c-5.1,12-22.3,33.4-41.2,37.4c-17.3,3.7-43.5-3.2-57.6-19.4
		c-31.7-36.3-24.2-89.1-45.1-104.2c-14.1-10.2-10.4-0.2-9.7,3.8s0.3,8.4-0.9,15.4c-1.2,6.9-2.2,13.7-8.2,20.4
		c-4.5,5-12.1,6.2-16.8,5.3s-8.8-2.3-11.7-7.9c-4.2-8.2,0.6-19.5,0.6-19.5s-6.3,9.7-8.8,17.7c-2.4,8-9.2,38.7,1.4,54.8
		c17.4,26.2,23.4,15.3,31.6,9.4s21.5-26.6,21.5-26.6c2.9-4.2,6.2-7.3,9.6-7.3c3.7,0,6.5,1.1,8.7,2.9l0,0c0.9,0.7,1.6,1.5,2.3,2.5
		l0.1,0.1c0.3,0.4,0.6,0.9,0.9,1.3l0.1,0.1c1.2,2,2.1,4.3,2.8,6.8c0,0,0,0,0,0.1c0.2,0.6,0.4,1.2,0.5,1.8l0,0
		c1.4,5,2.4,10.3,4.2,14.2c3.7,8,7.6,15.2,13.7,21.7c12.3,13,31.1,18.2,48.7,16c19-2.3,34.4-11.7,47.1-25.7
		C276.4,274.5,278.3,258.5,276.1,242.3z M88.5,249.1c-3.3,2.7-10.2,2.9-14.7-7.6s-4.9-15.1-4.9-15.1c0.7-0.2,10.2-1.1,16,5.3
		C89.3,236.7,92.9,245.5,88.5,249.1z"/>
	<path class="st3" d="M204.4,151.7c0,0.2-0.1,0.3-0.1,0.3s3.7,21.8,8.3,30.1c4.6,8.3,12.9,16.1,22.4,21.2c6.3,3.4,9.9,4.5,9.9,4.5
		c-2.6-9.3,2.3-17,8.6-24.3c0,0-7.9-4.3-12.5-9.4c-4.6-5.2-6.4-10.7-6.4-10.7c-6.5,2.5-16.1,3.3-22.5-0.5
		C207.7,160.3,205.7,156.2,204.4,151.7z"/>
	<path class="st3" d="M64.3,170.7c-2,1.1-4.2,2-6.4,2.8c-3.7-0.5-7.2-2.5-10-6.9c-5-7.9-1.1-16,2.8-23.1c5.4-10,3.8-17.7,2.4-23.4
		c-0.5,2.8-1.9,11.7-3.1,15.2c-2.4,7.3-11.1,13.4-22.5,25.6c-3.1,3.4-4.8,6.9-5.6,10.2c-0.1,12.2,9.9,19,19.5,23.3
		c1,0.4,2.9,1.2,2.9,1.2C50.4,180.3,64.3,170.7,64.3,170.7z"/>
	<path class="st3" d="M41.2,220.1l-2-0.3c0,0.1-18,4.7-27,2.2c-8.3-2.3-15.1-7.8-22.3-12.3c-13-8-28.6-10.3-42.4-2.8
		c-14.6,7.9-22.4,25.8-39,30.3c-14.7,4-25.9-8.1-33.5-21c2.4,9.4,9.2,18.6,16.3,22.9s16.1,5.6,24,2.7c8.4-3.1,13.5-10.5,19.5-16.8
		c7.9-8.3,18.5-14.7,30.4-14.1c13.7,0.6,19.2,10.4,28,18.9c12.1,11.7,32.6,12,45.2,1C38.4,230.9,40.7,228.9,41.2,220.1z"/>
	<path class="st0" d="M153.9,118c-7,14.7-26.4,20.9-40.4,13.3c-14.1-7.6-18-26.9-10.9-41.6c7-14.7,25.1-19.9,39.1-12.3
		c10.1,5.5,15.7,16.5,15.3,27.7C156.9,109.5,155.9,113.9,153.9,118z"/>
	<path class="st2" d="M153.9,118c-7,14.7-26.4,20.9-40.4,13.3c-11.1-6-15.8-19.2-13.9-31.8c-3.7,13.6,0.9,29.1,13.1,35.7
		c14.1,7.6,33.4,1.4,40.4-13.3c1.4-3,2.3-6.1,2.8-9.3C155.4,114.5,154.8,116.2,153.9,118z"/>
	<path class="st4" d="M107.5,89.8c11.3-11.6,31.3-10.4,43.6,1.6c0.9,0.9,1.7,1.8,2.4,2.7c-1.6-4.2-4.2-7.9-7.5-11
		c-11.5-10.2-28.8-8.7-37.8,4.3c-1,1.5-1.9,3-2.7,4.6C106.2,91.3,106.8,90.5,107.5,89.8z"/>
	<path class="st5" d="M143.9,117.4c-5,7.8-16.9,10.1-24.9,5c-7.9-5.1-9.1-16.1-4.1-23.9s16.1-9.6,24-4.5
		C146.9,99.1,148.9,109.6,143.9,117.4z"/>
	<g>
		
			<ellipse transform="matrix(0.1225 -0.9925 0.9925 0.1225 5.7645 225.319)" class="st6" cx="130.3" cy="109.4" rx="14.4" ry="14.4"/>
		<path class="st7" d="M144.3,106.1c-0.1-0.4-0.2-0.9-0.4-1.3c-0.3-0.8-0.6-1.5-1-2.1c-3-2.1-8.6-3.5-15.8-1
			c-6,2.1-9.7,6.9-10.9,10.5c0.1,0.7,0.3,1.3,0.5,2c0.2,0.4,0.3,0.9,0.5,1.3c2.9,1.1,7.4-2.7,13.5-4.8
			C136.9,108.5,142.7,108.8,144.3,106.1z"/>
	</g>
	<g>
		<path class="st4" d="M155.9,131.5c-6.4,7.7-15.5,13.2-25.7,13.8c-0.5,0-0.5,0.8,0,0.8c11-0.2,20.8-4.3,27.6-13.3
			C158.8,131.5,156.8,130.4,155.9,131.5z"/>
		<path class="st4" d="M160.2,138.1c-3.5,5.6-8.7,10-15.1,11.9c-0.4,0.1-0.2,0.8,0.2,0.7c7.2-1.7,13.1-5.5,17.1-11.8
			C163.2,137.6,160.9,137,160.2,138.1z"/>
	</g>
	<g>
		<path class="st6" d="M224,220.7c0-0.4-0.8-0.8-2-0.2c-1,0.5-2,1.7-2.4,2.8c-0.1,0.3-0.2,0.9-0.1,1.4
			C220.8,223.3,222.3,221.9,224,220.7z"/>
		<path class="st6" d="M232.1,216c0.2-0.3-0.5-1.3-1.9-1.1c-1.2,0.2-2.4,1.1-3.1,2.1c-0.2,0.4-0.5,1.2-0.3,1.7
			C228.4,217.7,230.2,216.8,232.1,216z"/>
		<path class="st6" d="M236.4,214.6c2.1-0.5,4.3-0.8,6.6-0.9c0-0.6-0.4-1.6-1.6-2.1s-2.9-0.2-4,0.6
			C236.8,212.6,235.9,214,236.4,214.6z"/>
		<path class="st6" d="M253.7,215.3c0,0,0.9-1.9-0.8-3c-1.2-0.8-3-1-4.4-0.4c-0.6,0.3-1.7,1.2-1.7,1.9
			C248.4,214,253.5,215,253.7,215.3z"/>
		<path class="st6" d="M263.9,220.4c0.2-1.4-0.2-3.6-3.5-5.3c-0.9-0.4-3.3,0.3-2.9,1.6C259.8,217.7,262,219,263.9,220.4z"/>
		<path class="st6" d="M272.1,230.4c0.9-0.9,2-2.5,1.9-3c-0.1-2.1-1.7-4.7-3.8-5.2c-0.8-0.2-2.7-0.1-3.8,0.5
			C268.8,224.9,270.7,227.5,272.1,230.4z"/>
		<path class="st6" d="M278.3,234.5c-0.8-0.7-3.1-1.5-4.5-1.1c1.3,3.3,2.1,6.8,2.7,10.6c1.2-0.5,2.8-1.5,3.5-2.4
			C281,240.3,280.3,236,278.3,234.5z"/>
		<path class="st8" d="M276.8,247.4c0.3,4,0.4,8.1,0,12c1.4-0.1,4-1,4.4-1.6c1.3-2.2,1.7-5.9,0.2-8.1
			C280.7,248.8,278.3,247,276.8,247.4z"/>
		<path class="st8" d="M276.3,263.5c-0.7,4.5-2,8.9-4,13c1.2,0.3,3.4,0.1,4.7-0.4c1.9-0.8,3.7-5.9,3-8.7
			C279.6,266.1,277.9,263.3,276.3,263.5z"/>
		<path class="st8" d="M269.2,281.9c-1.2,1.9-2.6,3.7-4.2,5.4c-1.5,1.7-3.1,3.3-4.7,4.8c0.7,0.9,4.1,2.1,4.9,1.8
			c2.6-1,5.6-4.1,6-6.9C271.4,285.6,270.8,282.3,269.2,281.9z"/>
		<path class="st8" d="M255.6,296.4c-3.4,2.8-6.9,5.3-10.6,7.5c0.4,0.9,2.7,2.7,4.2,3.1c1.9,0.5,6.5-2.3,7.7-5
			C257.6,300.4,258,296.2,255.6,296.4z"/>
		<path class="st8" d="M240.2,306.4c-4,1.9-8.2,3.5-12.5,4.7c0.5,1.3,2.4,3.5,3.2,3.7c2.8,0.4,6.9-0.6,8.7-2.8
			C240.5,310.8,241.8,307.4,240.2,306.4z"/>
		<path class="st8" d="M217.9,313.1c-3.4,0.4-6.9,0.6-10.4,0.4c0.4,1.2,0.9,2.3,1.3,2.6c2.4,1.4,6.7,1.8,9.2,0.3
			c1-0.6,2.5-2.3,2.8-3.7C219.8,312.8,218.8,313,217.9,313.1z"/>
		<path class="st8" d="M189.4,310.1c0.2,0.9,0.5,1.7,0.7,1.9c2.2,1.7,6.3,2.9,9,1.8c0.4-0.2,1-0.5,1.5-0.9
			C196.9,312.3,193.1,311.4,189.4,310.1z"/>
	</g>
	<g>
		<path class="st6" d="M296.2,164.2c-0.3-2.7-0.7-5.6-1.4-8.5c-1.3,0.5-2.6,1.4-3.5,2.6c-2.1,2.6-2.2,6.4-0.3,7.9
			c1.2,0.9,3.4,0.9,5.3,0.1C296.3,165.6,296.3,164.9,296.2,164.2z"/>
		<path class="st6" d="M287.1,146.3c-2.1,2.6-2.2,6.4-0.3,7.9c1.6,1.3,5,0.7,7.3-1.1c-0.9-3.3-2.1-6.4-3.6-9.3
			C289.3,144.2,288.1,145.1,287.1,146.3z"/>
		<path class="st6" d="M320.4,160.3c0.9,1,2.2,1.4,4.1,0.9c3.3-0.9,1.9-12,0.2-16.3c-1.7-4.5-3.7-4.8-5.6-3.5
			c-2.7,1.7-2.4,4.9-1.6,9.3c0.7,3.7,1.1,7.4,2.7,9.3"/>
		<path class="st8" d="M320.2,160c0.1,0.1,0.2,0.2,0.2,0.3"/>
		<path class="st8" d="M324.6,161.2c3.3-1,1.8-12,0.2-16.2c-1.7-4.5-4.3-5.3-5.2-3.1c-0.8,2-0.7,4.9,0,8.4
			C320.6,156.3,322.3,161.3,324.6,161.2z"/>
		<path class="st5" d="M324.4,154.6c0.8-0.4,0.4-4.4-0.1-6s-1-2.7-1.5-1.9c-0.4,0.7,0,2.6,0.2,3.9
			C323.4,152.8,323.9,154.6,324.4,154.6z"/>
		<path class="st6" d="M300.4,216c-4.1-1.9-8.4,1.5-10.1,2.8c-3.4,2.5-9.6,12.7-2.4,15.6c5.7,2.3,14.8-5,17.3-9.7
			C307.8,219.9,303.5,217.4,300.4,216z"/>
		<path class="st8" d="M292.4,223.6c-3,2.9-7.3,9.1-4.5,10.9c5.7,2.3,14.8-5,17.3-9.7c1-1.8,1-3.3,0.5-4.5
			C304.8,218.2,296.7,219.5,292.4,223.6z"/>
		<path class="st6" d="M321.9,190.7c-4.4,0.6-6.4,1.6-8.9,5.9c-3.4,5.7-5.4,11.2-0.6,14.9c3.9,3,12-9.1,13.5-14.1
			C327.4,192.3,324.8,190.3,321.9,190.7z"/>
		<path class="st8" d="M316.7,199.4c-3.4,5.7-6.8,10.2-4.5,12.2c3.7,3.2,12-9.1,13.5-14.1c1.2-3.9,0.1-7-1.9-6.5
			C321.3,191.6,319.3,195.1,316.7,199.4z"/>
		<path class="st5" d="M318.9,201.5c-1.1,1.9-2.3,3.4-1.5,4.1c1.2,1,3.9-3.1,4.5-4.8c0.4-1.3,0.1-2.3-0.5-2.1
			C320.5,198.8,319.8,200,318.9,201.5z"/>
		<path class="st6" d="M326.3,166.1c-3,0.7-3.7,3.7-4.4,8.2c-0.9,5.9-0.9,11.2,3,12.4c3.2,1,5.6-10.6,5.4-15.3
			C330.2,166.7,328.5,165.7,326.3,166.1z"/>
		<path class="st8" d="M330.3,171.5c-0.1-3.3-0.9-4.8-2.1-5.3c-0.2,0-0.4,0.1-0.6,0.1c-2.3,0.8-3,3.8-3.7,8.3
			c-0.9,5.8-1.1,10.9,1.6,12.1C328.4,186.2,330.4,175.8,330.3,171.5z"/>
		<path class="st5" d="M328.4,174.7c0-1.1-0.3-1.7-0.7-1.8c-0.1,0-0.1,0-0.2,0c-0.8,0.3-1,1.3-1.3,2.9c-0.3,2-0.4,3.8,0.6,4.2
			C327.7,179.8,328.4,176.2,328.4,174.7z"/>
		<path class="st8" d="M313.3,130.6c1,1.7,2.6,5.1,4.1,8.3c0.1,0,0.2-0.1,0.3-0.1c3.3-1.9-1-11-3.7-14.1c-2.5-2.9-4.4-2.9-6-1.7
			C309.7,125.2,311.7,127.9,313.3,130.6z"/>
		<path class="st6" d="M284.5,166.8c1,2.2-0.2,5.1-3.1,6.8c-2.9,1.7-7.3,1-8.5-1.1c-1.2-2.1,0.3-5.6,3.2-7.2
			C279.1,163.5,283,163.4,284.5,166.8z"/>
		<path class="st6" d="M282.6,156.3c1,2.2-0.1,5.1-2.9,6.7s-7.1,0.9-8.3-1.2c-1.2-2.1,0.2-5.5,3-7.2
			C277.2,153.1,281.1,153,282.6,156.3z"/>
		<path class="st6" d="M265.3,160.1c-0.8,2.3-3.6,3.7-6.7,2.9c-3.2-0.7-5.8-4.2-5.3-6.6s3.9-3.9,7.1-3.2
			C263.6,154,266.5,156.6,265.3,160.1z"/>
		<path class="st6" d="M265.6,170.8c-0.7,2.1-3.5,3.2-6.6,2.5c-3.2-0.7-5.9-3.9-5.4-6.1c0.5-2.1,3.8-3.5,7-2.7
			C263.8,165.3,266.7,167.7,265.6,170.8z"/>
		<path class="st6" d="M316.2,117.5c0,2-1.4,3.6-3.1,3.6c-1.7,0-3.1-1.6-3.1-3.6s1.4-3.6,3.1-3.6
			C314.8,113.9,316.2,115.6,316.2,117.5z"/>
		<path class="st8" d="M313.1,119c-0.6,0-1.2-0.6-1.2-1.4s0.5-1.4,1.2-1.4c0.6,0,1.2,0.6,1.2,1.4C314.3,118.3,313.8,119,313.1,119z"
			/>
		<path class="st6" d="M316.1,106.7c0,1.7-1.2,3-2.7,3s-2.7-1.3-2.7-3s1.2-3,2.7-3S316.1,105.1,316.1,106.7z"/>
		<path class="st8" d="M313.4,107.9c-0.5,0-1-0.5-1-1.1s0.4-1.1,1-1.1c0.5,0,1,0.5,1,1.1S313.9,107.9,313.4,107.9z"/>
		<ellipse class="st6" cx="311.5" cy="97.9" rx="2.4" ry="2.6"/>
		<path class="st8" d="M311.5,99c-0.5,0-0.9-0.5-0.9-1.1s0.4-1.1,0.9-1.1s0.9,0.5,0.9,1.1S312,99,311.5,99z"/>
		<path class="st6" d="M310.1,90.4c0,1.4-1,2.5-2.3,2.5c-1.2,0-2.3-1.1-2.3-2.5s1-2.5,2.3-2.5C309.1,87.9,310.1,89,310.1,90.4z"/>
		<path class="st8" d="M307.9,91.1c-0.4,0-0.6-0.3-0.6-0.8c0-0.4,0.3-0.8,0.6-0.8c0.4,0,0.6,0.3,0.6,0.8S308.2,91.1,307.9,91.1z"/>
		<path class="st6" d="M304.6,92.3c0,1.3-0.9,2.3-2.1,2.3c-1.2,0-2.1-1-2.1-2.3s0.9-2.3,2.1-2.3C303.6,90,304.6,91,304.6,92.3z"/>
		<path class="st8" d="M302.5,93c-0.3,0-0.6-0.3-0.6-0.7c0-0.4,0.3-0.7,0.6-0.7c0.3,0,0.6,0.3,0.6,0.7C303.1,92.7,302.8,93,302.5,93
			z"/>
		<path class="st6" d="M306.4,84c0,1.1-0.8,2-1.8,2s-1.8-0.9-1.8-2s0.8-2,1.8-2S306.4,82.9,306.4,84z"/>
		<path class="st6" d="M301.9,85.5c0,1-0.8,1.9-1.7,1.9s-1.7-0.8-1.7-1.9c0-1,0.8-1.9,1.7-1.9S301.9,84.5,301.9,85.5z"/>
		<path class="st6" d="M303.2,80.6c0,0.7-0.5,1.3-1.2,1.3c-0.7,0-1.2-0.6-1.2-1.3c0-0.7,0.5-1.3,1.2-1.3
			C302.7,79.3,303.2,79.9,303.2,80.6z"/>
		<ellipse class="st6" cx="298.6" cy="80.8" rx="1.1" ry="1.2"/>
		<ellipse class="st6" cx="304.8" cy="98.5" rx="2.4" ry="2.6"/>
		<path class="st8" d="M304.8,99.6c-0.5,0-0.9-0.5-0.9-1.1s0.4-1.1,0.9-1.1s0.9,0.5,0.9,1.1C305.8,99.1,305.4,99.6,304.8,99.6z"/>
		<path class="st6" d="M308.6,106.2c0,1.6-1.2,2.9-2.6,2.9c-1.4,0-2.6-1.3-2.6-2.9s1.2-2.9,2.6-2.9
			C307.5,103.3,308.6,104.6,308.6,106.2z"/>
		<path class="st8" d="M306,107.3c-0.5,0-0.9-0.5-0.9-1.1s0.4-1.1,0.9-1.1s0.9,0.5,0.9,1.1C307,106.8,306.5,107.3,306,107.3z"/>
		<ellipse class="st6" cx="306" cy="115.7" rx="2.8" ry="3.4"/>
		<path class="st8" d="M306,117c-0.5,0-1-0.6-1-1.3s0.4-1.3,1-1.3c0.6,0,1,0.6,1,1.3C307,116.4,306.6,117,306,117z"/>
		<path class="st5" d="M301.2,225.2c0.4,0.5-0.8,2.2-2.7,3.6c-1.9,1.5-3.8,2.2-4.2,1.7s0.7-2.8,2.6-4.2
			C298.8,224.7,300.8,224.6,301.2,225.2z"/>
		<path class="st8" d="M277.8,171.1c-0.4,0-0.8-0.2-1-0.6c-0.2-0.4-0.3-0.9-0.1-1.3c0.5-0.9,2.1-1.8,3.4-1.8c0.3,0,0.5,0,0.7,0.1
			c0.3,0.1,0.5,0.3,0.6,0.5c0.1,0.3,0.1,0.6-0.1,1C280.7,170.5,279,171.1,277.8,171.1z"/>
		<path class="st8" d="M276.1,160.6c-0.4,0-0.8-0.2-1-0.5c-0.3-0.3-0.4-0.7-0.3-1.1c0.3-1.2,2.1-1.9,3.3-1.9c0.6,0,1,0.2,1.2,0.5
			c0.2,0.3,0.2,0.6,0.1,1C279,159.9,277.4,160.6,276.1,160.6z"/>
		<path class="st8" d="M260.3,159.7c-0.3,0-0.5,0-0.8-0.1c-1.2-0.3-2.3-1.5-2.1-2.1c0.1-0.5,0.9-0.9,1.9-0.9c0.3,0,0.5,0,0.7,0.1
			c0.9,0.2,1.6,0.7,1.9,1.2c0.2,0.3,0.2,0.6,0.1,0.9C261.8,159.4,261.1,159.7,260.3,159.7z"/>
		<path class="st8" d="M260.3,170.5c-0.2,0-0.4,0-0.6-0.1c-1.3-0.2-2.3-1.2-2.1-2c0.1-0.7,1-1.2,2.1-1.2c0.2,0,0.4,0,0.6,0.1
			c1.3,0.2,2.3,1.2,2.1,2C262.2,170,261.4,170.5,260.3,170.5z"/>
		<path class="st8" d="M290.9,150.5c0.1,0,0.3,0,0.4-0.1c0.7-0.2,1.3-0.7,1.7-1.2c-0.3-0.9-0.7-1.9-1.1-2.8
			c-1.1,0.4-2.5,1.7-2.4,2.8C289.6,150,290.2,150.5,290.9,150.5z"/>
		<path class="st8" d="M294.8,162.8L294.8,162.8c0.1,0,0.2,0,0.3,0c0.3-0.1,0.6-0.2,0.9-0.4c-0.1-1.1-0.3-2.2-0.5-3.3
			c-1,0.5-1.8,1.4-1.9,2.1c-0.1,0.4,0,0.8,0.3,1.1C294.1,162.7,294.4,162.8,294.8,162.8z"/>
	</g>
	<g>
		<path class="st8" d="M50.8,123.9c0,3.1-1.5,5.6-3.4,5.6S44,127,44,123.9s1.5-5.6,3.4-5.6C49.2,118.3,50.8,120.8,50.8,123.9z"/>
		<path class="st8" d="M41.2,121.1c0,3.1-1.5,5.6-3.4,5.6s-3.4-2.5-3.4-5.6s1.5-5.6,3.4-5.6C39.6,115.5,41.2,118,41.2,121.1z"/>
		<path class="st6" d="M43.1,138.7c-2,2.4-4.8,3.3-6.2,2.1s-1-4.1,1-6.5s4.8-3.3,6.2-2.1C45.6,133.5,45.1,136.4,43.1,138.7z"/>
		<path class="st6" d="M35.2,135.9c-1.2,2.8-2.3,3.9-4,3.2c-1.7-0.7-1.7-3-0.5-5.8s2.7-4.4,4.5-3.6
			C36.9,130.3,36.5,133.1,35.2,135.9z"/>
		<path class="st6" d="M28.3,149.4c-1.6,2.7-2.8,3.6-4.4,2.6s-1.3-3.2,0.2-5.8c1.6-2.7,3.3-4,4.9-3.1
			C30.6,144.1,29.9,146.8,28.3,149.4z"/>
		<path class="st6" d="M24.8,162.3c-0.8,2.7-1.8,4.3-3.5,3.8s-1.9-2.6-1.1-5.3c0.8-2.7,2-4.3,3.7-3.8S25.6,159.6,24.8,162.3z"/>
		<path class="st6" d="M33.1,153.3c-2,2.4-4.8,3.3-6.2,2.1s-0.1-3.2,1.8-5.6c2-2.4,3.9-4.2,5.3-3C35.6,148.1,35.1,150.9,33.1,153.3z
			"/>
	</g>
	<path class="st2" d="M42.1,149.4c6.9-7.5,13.4-18.7,11-29.3c-0.2-0.9-2.9-1.9-2.9-1.9c0.6,11.8-5.5,20.6-10.6,26.9
		c-4.6,5.7-11.2,9.7-15.3,15.8c-6.5,9.8-2.2,22.3,7.8,27.5c0.2,0.1,0.5-0.2,0.2-0.4c-8.8-5.3-11.9-16.1-5.8-24.9
		C30.5,157.6,37.4,154.5,42.1,149.4z"/>
	<path class="st0" d="M117.2,151.2c0.4,0.9,2,0.6,1.7-0.4c-1.8-6.6-9.3-13.6-29.9-23c-25.7-11.7-30.4-11.2-49.7-23.9
		C10.9,85.2,9.9,64.8,8.4,50.5c-4.5,19.4-1.1,47.8,24.5,61.3c8.2,4.3,20.4,10.9,49.4,21.1C82.3,133.5,111.5,137.6,117.2,151.2z"/>
	<path class="st0" d="M114.9,143.5c-4.5-3.5-8.1-5.2-15.7-7.1c-10.2-2.5-10.8-3.3-19.7-6c-2.6-0.8-7.5-1.3-7.1-1.2
		c6.4,2.6,10.2,4,14.9,5.7c6.6,2.3,18.5,4.4,24,9c-6.3-0.6-13.1,2.2-13,9.3c0,8.7,12.8,12.9,18.4,10.2
		C124.9,159.4,122.8,149.6,114.9,143.5z"/>
	<path class="st3" d="M111.8,161.9c-6.8-0.2-12.5-6.6-9.3-11.4c2.4-3.6,8.4-3.8,12.9-0.6c1.3,1.2,2.6,4.3,2,7.3
		C116.9,159.6,114.9,162,111.8,161.9z"/>
	<path class="st2" d="M117.4,157.2c0.6-2.9-0.8-6.1-2-7.3c-2.8-2.9-7.3-2.8-10.2-1.6c2,0.7,5,2.4,6.3,5.7c1.2,3,0.8,5.8,0.3,7.8
		C114.9,162,116.9,159.6,117.4,157.2z"/>
	<path class="st3" d="M-104.9,199.6c6.5,2.3,4.6,11.8-3.3,8.9c1.8,1,4.7,3.3,8.1,1.2c4.4-2.8,2.3-8.6-0.2-10.6s-8-1-8.9,0.8v0.1
		C-108,199.2-106.5,199-104.9,199.6z"/>
	<path class="st0" d="M56.6,69c0.4,1.3,0.4,9.3,3.2,11.7c2.8,2.4,11.7-5.9,11.7-5.9s-6,0.8-8.8,0C59.8,74.1,56.6,69,56.6,69z"/>
	<path class="st0" d="M64.7,102.5c0.4,1.2,0.4,8.6,3,10.8s10.7-5.4,10.7-5.4s-5.6,0.7-8.1,0C67.6,107.2,64.7,102.5,64.7,102.5z"/>
	<path class="st0" d="M89.7,63.4c0.4,1.1,0.4,8,3,10s10.7-5,10.7-5s-5.6,0.7-8.1,0C92.6,67.7,89.7,63.4,89.7,63.4z"/>
	<path class="st0" d="M59.2,39.7c0.4,1.2-0.8,6.2,1.8,8.4s10.5-3.7,10.5-3.7s-5.6,0.7-8.1,0C60.8,43.6,59.2,39.7,59.2,39.7z"/>
	<path class="st0" d="M19.9,44.1c0.4,1.3,0.4,9.8,3.4,12.4s12.3-6.2,12.3-6.2s-6.4,0.8-9.3,0C23.3,49.5,19.9,44.1,19.9,44.1z"/>
	<path class="st0" d="M25,77.8c0.4,1.4,0.4,10.1,3.5,12.7s12.7-6.4,12.7-6.4s-6.6,0.8-9.6,0C28.5,83.4,25,77.8,25,77.8z"/>
	<path class="st2" d="M130.8,205.1c-13.7-19.6-0.9,9-1.3,24.7c-0.3,11.5-2.8,22.3-2.8,22.3c2.8-3.7,5.9-6.5,9-6.5s5.6,0.8,7.6,2.1
		C138.5,232.7,139.1,216.8,130.8,205.1z"/>
	<path class="st4" d="M112.8,194.8c4-1.1,4.5-4.9,4.2-9.3s-2.4-12.7-13.4-17.8c-9-4.2-20.7-5.2-31.8-0.9
		c-22.7,8.7-31.2,35.4-32.1,36.9c-3.9,10.4-6.2,23.2-6.8,35.8c0.7,1.1,1.5,2.2,2.6,3.1c6.7,5.6,17.5,2.3,26.7-3.7
		c0.4-12.7,3.8-26.8,8.9-36.6c6-11.4,17.8-16.7,25.4-16.5C104.1,186.2,108.8,195.9,112.8,194.8z"/>
	<path class="st2" d="M104,191c-5.4-4.5-12.8-3.6-18.5-0.1c-4.2,2.7-7.2,6.5-9.4,10.8l0,0c-9.6,14.8-11.4,32.4-9.5,49.7
		c1.8,15.4,8.1,29.3,23.1,35.5c0.3,0.1,0.5-0.2,0.2-0.4c-15.2-6.7-19.4-23.6-20.4-38.9c-0.3-4.5,0.9-22.2,5-33.8
		c6.7-18.9,15-25.5,23.4-23.3c7.1,1.9,10.1,9,8.5,15.9c-1.3,5.5-5.2,11.7-12.4,12c-2.8-0.1-9.8-2.8-7.2-11.5c1-3.4,3.3-5.9,7-5.7
		c2.3,0.1,4.9,1,5.4,3.5c0.6,3.8-3.5,5.4-6.4,1.4c-1.2-1.7-2.3,0.9-1.2,2.7c2.4,3.8,7.8,4.1,9.7-0.9c2.2-5.8-4.6-9.5-9.5-8.4
		c-6,1.3-9.7,8.6-8.4,14.7c1.5,4.3,5.1,7.7,10.7,7.5c8-0.3,13-8.4,14-10.8C111.1,204.2,109.7,195.7,104,191z"/>
	<path class="st2" d="M162.3,85.1c0-0.4-0.6-0.4-0.6,0c0.1,4.3-1.7,7.9-5,10.6c-1.3,1.1,1,2.7,2,1.4
		C161.2,93.6,162.5,89.4,162.3,85.1z"/>
	<path class="st2" d="M174.7,87c-2.8-0.1-5.4-1.7-6.5-4.3c-0.2-0.4-0.9-0.2-0.7,0.2c1.3,2.9,3.7,5.1,6.9,5.7
		C175.8,88.8,176.1,87,174.7,87z"/>
	<path class="st2" d="M100.5,127.9c-8.5-6.5-14.1-17.2-11.9-28c0.1-0.5-0.8-0.7-0.9-0.2c-2.6,11.6,0,23.4,9.8,30.7
		C99.5,131.9,102.6,129.5,100.5,127.9z"/>
	<g>
		<path class="st6" d="M94.4,302c-2.1-1.8-4.9-1.9-8.9-1.2c-5.1,0.8-7.9,2.9-8.2,4.3c-0.3,2.1-0.8,3.3,0.3,4.1
			c2.1,1.6,6.9,1.1,9.5,0.7c2.6-0.3,6.8-1.9,8.5-3.6C97.1,304.8,96.5,303.7,94.4,302z"/>
		<path class="st6" d="M112,285.5c-1.2-0.3-3-0.2-5.4,1.8c-1.7,1.4-4.8,3.7-5.3,5.9s0.6,4.4,1,4.6c2.9,2.2,8.3-2,10.5-4.3
			c1.3-1.3,3.1-3.2,3-5C115.6,287.3,112.4,285.6,112,285.5z"/>
		<path class="st8" d="M102.2,297.8c2.9,2.2,8.3-2,10.5-4.3c1.3-1.3,3.1-3.2,3-5c-0.1-0.6-2.2-1.5-7.2,2.3
			C101.9,295.8,102.1,297.7,102.2,297.8z"/>
		<path class="st6" d="M118.7,265.6c-1,0.2-2.6,1.7-3.5,3.6c-0.7,1.6-2.3,3.8-1.8,5.6c0.5,1.7,2,2.8,2.3,2.9
			c2.8,0.5,5.1-4.3,5.8-6.8c0.4-1.4,1-3.4,0.3-4.6C121.4,265.3,119.1,265.5,118.7,265.6z"/>
		<path class="st8" d="M115.8,277.5c2.8,0.5,5.1-4.3,5.8-6.8c0.4-1.4,1-3.4,0.3-4.6c-0.3-0.4-1.8-0.3-5,5.4
			C114.7,275.4,115.6,277.5,115.8,277.5z"/>
		<path class="st0" d="M68.8,217.5c-1.5-2.3-4.5-3.9-8.2-1.9c-4.7,2.6-5,7.3-5.6,12c-0.5,4.2,2.9,11.3,9.2,8.4
			c0.6-0.3,1.2-0.7,1.7-1.1C66.3,229,67.2,223.2,68.8,217.5z"/>
		<path class="st0" d="M48.6,215.8c-1-2.5-5.4-6.4-10.2-2.5c-4.2,3.5-4.6,10.9-4.6,12.9c0,4.2,5.4,8.4,10.1,5.1
			C48.7,227.8,50.2,219.7,48.6,215.8z"/>
		<path class="st6" d="M68.4,217c-0.8-3.3-4.4-6.7-9.1-4.1s-5,7.3-5.6,12c-0.5,4.2,2.9,11.3,9.2,8.4C67.9,231.1,69.6,222.3,68.4,217
			z"/>
		<path class="st0" d="M42.2,260.1c4.2-3.4,4.1-14,1.5-18.9c-1.5-2.8-5.2-4.2-7.3-2.8c-3.3,1.2-4.3,8.8-4.1,11.9
			C32.7,255.4,36.8,264.4,42.2,260.1z"/>
		<path class="st6" d="M40,258.4c4.9-3.5,5.1-14.3,2.3-19.1c-1.6-2.8-5.8-4-8.2-2.6c-3.8,1.4-5.2,9-5,12.1
			C29.3,254,33.7,263,40,258.4z"/>
		<path class="st8" d="M31.8,243.5c2.3-1.5,6.2-0.2,7.7,2.6c1.1,2,1.7,5,1.7,8.1c1.7-4.4,1.3-11-0.4-14.2c-0.8-1.5-2.7-2.6-4.5-2.6
			c-0.7,0-1.3,0.2-1.7,0.5c-0.1,0-0.1,0.1-0.2,0.1c-1.6,0.6-2.8,3.4-3.5,6.2C31.1,243.8,31.4,243.6,31.8,243.5z"/>
		<path class="st6" d="M53.4,238.6c-2.9,3.6-2.4,5.4-2.7,7.4c-0.5,3.8,1.1,16,9.7,12.6c6.8-2.7,6.1-13.9,3.9-18.3
			C62,235.6,56.3,235,53.4,238.6z"/>
		<path class="st8" d="M62.4,240.7c-1-2.1-2.8-3.3-4.7-3.3c-1.4,0-2.7,0.7-3.6,1.9c-0.8,1-1.2,1.8-1.5,2.6c2.7-0.5,5.8,0.8,7.4,3.8
			c1.2,2.4,1.9,6.6,1.3,10.5c0.7-0.7,1.3-1.7,1.7-2.9C64.4,249,63.6,243.3,62.4,240.7z"/>
		<path class="st8" d="M56.5,244.4c-1.1,1.3-0.9,1.9-1,2.7c-0.2,1.4,0.4,5.8,3.5,4.5c2.4-1,2.2-5,1.4-6.6
			C59.6,243.3,57.6,243.1,56.5,244.4z"/>
		<path class="st8" d="M34.9,243.7c-0.8,1.5-0.6,2.3-0.7,3.1c-0.1,1.6,0.5,6.8,2.9,5.4c1.9-1.1,1.6-5.8,1-7.7
			C37.4,242.5,35.7,242.2,34.9,243.7z"/>
		<path class="st6" d="M55.1,273c0.8,4.3,6.4,11.8,13.4,10.5c7.2-1.4,5.2-10.2,2.9-13.9c-1.4-2.2-5.6-7.7-12.4-5.8
			C53.4,265.3,54.9,271.9,55.1,273z"/>
		<path class="st8" d="M65.9,283c-5.7,0-10-6.4-10.6-9.7c-0.6-3.1-0.5-6.9,3.2-7.9c0.8-0.2,1.6-0.4,2.4-0.4c4.6,0,7.6,3.9,8.7,5.6
			c1.4,2.2,2.7,6.6,1.4,9.5c-0.6,1.5-1.8,2.3-3.6,2.7C66.9,283,66.4,283,65.9,283L65.9,283z"/>
		<path class="st6" d="M37.5,266.5c-6,0.3-4.9,6.8-4,9.8c1.3,4.5,3.3,11.8,8.8,12.2c7.8,0.6,7.5-10.9,6.2-14.2
			C47.1,270.7,44.3,266.1,37.5,266.5z"/>
		<path class="st6" d="M63.7,295c-3.4-2-9-3.9-12.9-0.8c-2.8,2.3-4.5,3.9-1.1,7c2.3,2.1,10.7,7.1,17.1,5.8c1.8-0.4,2.6-2,2.5-4
			C69.2,300.2,67.9,297.5,63.7,295z"/>
		<path class="st0" d="M70.3,208.9c1-0.4,1.8-1,2.6-1.7c0.9-1.9,2-3.7,3.2-5.5l0,0c0.4-0.8,0.9-1.6,1.3-2.3c0.3-1.5,0.4-2.9,0.1-4
			c-0.6-2.4-4.3-6.7-9.6-3.9c-4.8,2.5-6.1,8.6-6.4,10.5C60.8,205.8,65.1,211.2,70.3,208.9z"/>
		<path class="st0" d="M49.8,201.8c5.5-0.9,10.1-8.5,11-14c0.4-2.3-0.7-4.5-3-5.1c-2.5-0.7-6.5,1.4-10.3,7.3
			C45.3,193.4,42.8,203,49.8,201.8z"/>
		<path class="st6" d="M76.2,192.7c-0.6-2.4-4.3-6.7-9.6-3.9c-4.8,2.5-6.1,8.6-6.4,10.5c-0.7,3.9,3.6,9.3,8.8,6.9
			C74.3,203.8,77.1,196.6,76.2,192.7z"/>
		<path class="st6" d="M47.3,213.1c-1-2.5-5.4-6.4-10.2-2.5c-4.2,3.5-4.6,10.9-4.6,12.9c0,4.2,5.4,8.4,10.1,5.1
			C47.4,225.1,48.9,217.1,47.3,213.1z"/>
		<path class="st6" d="M48.5,199.2c5.5-0.9,10.1-8.5,11-14c0.4-2.3-0.7-4.5-3-5.1c-2.5-0.7-6.5,1.4-10.3,7.3
			C43.9,190.7,41.4,200.3,48.5,199.2z"/>
		<path class="st0" d="M73,176.2c2.9-0.3,9-3.6,8.7-6.8c-0.8-7.1-13.5-2.6-15.2,1.8C64.5,176.4,70.3,176.5,73,176.2z"/>
		<path class="st0" d="M80.8,188.7c3.4-0.5,9.8-4.6,7.3-9.5c-2.3-4.5-8.6-2.7-11.9,0.2C72.9,182.2,73.3,189.8,80.8,188.7z"/>
		<path class="st6" d="M73,174.9c2.9-0.3,9-3.6,8.7-6.8c-0.8-7.1-13.5-2.6-15.2,1.8C64.5,175,70.3,175.2,73,174.9z"/>
		<path class="st8" d="M73.3,170c1-0.1,3-1.2,2.9-2.3c-0.3-2.4-4.6-0.9-5.1,0.6C70.4,170,72.4,170.1,73.3,170z"/>
		<path class="st0" d="M93.4,182.6c2.7,1.3,10.6,2.8,12.1-1.2c1.4-3.7-5.2-6.8-9.5-6.3C91.9,175.6,89,180.5,93.4,182.6z"/>
		<path class="st0" d="M104.3,173.3c1.6-0.5,3-1.6,2.6-3.1s-3.3-3.3-4.9-3.8c-2.2-0.7-8.2-2.1-8.8,1.3
			C92.4,171.9,100.6,174.5,104.3,173.3z"/>
		<path class="st6" d="M93.6,181.6c2.7,1.2,10.2,2.3,11.5-1.7c1.2-3.7-5.3-6.5-9.3-5.8C91.9,174.7,89.3,179.7,93.6,181.6z"/>
		<path class="st6" d="M80.8,187.3c3.4-0.5,9.8-4.6,7.3-9.5c-2.3-4.5-8.6-2.7-11.9,0.2C72.9,180.9,73.3,188.5,80.8,187.3z"/>
		<path class="st8" d="M81,182.2c1.2-0.2,3.5-1.6,2.6-3.4c-0.8-1.6-3.1-1-4.2,0.1C78.2,179.9,78.3,182.6,81,182.2z"/>
		<path class="st6" d="M103.7,171.8c1.5-0.6,2.8-1.8,2.3-3.2c-0.5-1.5-3.3-3.1-4.8-3.6c-2.1-0.6-7.9-1.7-8.4,1.7
			C92.2,170.9,100.1,173.1,103.7,171.8z"/>
		<path class="st8" d="M115.9,202.3c0.2,0.2,0.5,0.3,0.9,0.3c3.4,0.2,2.9-5.2,2.3-7.3c-0.3-1-0.7-2.2-1.7-2.1
			c-0.2,1.8-0.5,3.8-0.9,6.1C116.3,200.2,116.1,201.3,115.9,202.3z"/>
		<path class="st0" d="M109.5,194.6c1,0.7,2.3,0.5,3.2-0.4c1.1-1.2,0.9-2.9,0.7-4.4c-0.3-1.9-4.3-8.4-7.7-5.4
			C103.4,186.4,107.1,193,109.5,194.6z"/>
		<path class="st8" d="M110.5,192.9c1.1,0.6,2.4,0.3,3.1-0.6c1-1.2,0.8-3,0.4-4.4c-1-3.4-4.9-8-8.1-4.9
			C103.8,185.1,107.9,191.5,110.5,192.9z"/>
		<path class="st6" d="M114,187.9c-0.9-3.1-4.2-7.2-7.2-5.5c-2.1,2.1,2.1,8.4,4.6,9.9c0.7,0.4,1.5,0.4,2.2,0.1l0,0
			C114.6,191.1,114.4,189.3,114,187.9z"/>
		<path class="st0" d="M116.3,180.3c0,0-2.5-3.1-3.8-1.9c-1.2,1.1-1.7,2.6,1,8.1c0.7,1.6,2.2,2.8,3.7,2.1c0.2-0.1,0.4-0.2,0.6-0.4
			C117.8,185.8,116.3,180.3,116.3,180.3z"/>
		<path class="st6" d="M113.9,184.5c0.9,1.5,2.4,2.6,3.8,1.8c2.9-1.7,0-7.2-2-9.5c-1-1.2-2.1-1.6-3.4-0.4
			C111.2,177.7,110.8,179.2,113.9,184.5z"/>
		<path class="st6" d="M114.6,213.8c1.4-2.1,1.4-3.8,1.4-3.8c0.4-1.9-2.2-3.3-3.3-2s-1.7,3.6-1.8,5.3S113.3,215.7,114.6,213.8z"/>
		<path class="st8" d="M111.4,219.7c0.5-1.4-0.1-2.5-0.9-3.1c-0.7,1-1.5,2-2.4,3s-2,1.9-3.1,2.6c0.5,0.6,1.7,0.9,2.7,0.9
			C109.5,223.1,110.9,221.1,111.4,219.7z"/>
		<path class="st8" d="M93.2,225.2c-0.4,0.8,0.7,2.7,2.5,2.6c3.9-0.3,3.1-2.3,2.8-3C96.6,225.2,94.8,225.3,93.2,225.2z"/>
		<path class="st8" d="M86.8,226.1c1.1,0.3,2.2-0.8,1.7-1.8c-1.6-0.5-3.2-1.1-4.6-2.1c-0.1,0.8,0.2,2.3,0.7,2.6
			C85.3,225.4,86,225.8,86.8,226.1z"/>
		<path class="st6" d="M110,277.6c-1.2-0.3-3-0.2-5.4,1.8c-1.7,1.4-4.8,3.7-5.3,5.9s0.6,4.4,1,4.6c2.9,2.2,8.3-2,10.5-4.3
			c1.3-1.3,3.1-3.2,3-5C113.6,279.4,110.4,277.7,110,277.6z"/>
		<path class="st8" d="M100.2,290c2.9,2.2,8.3-2,10.5-4.3c1.3-1.3,3.1-3.2,3-5c-0.1-0.6-2.4-1.9-8,2.1
			C100,286.8,100.1,289.9,100.2,290z"/>
		<path class="st6" d="M93.8,287.6c-1-1.3-3.2-2.4-6.3-2.6c-2.9-0.2-8-0.3-10.3,1.5c-2.3,1.8-3,4.9-2.9,5.5c1.1,4.6,10,5,14.3,4.5
			c2.4-0.3,5.9-0.6,7.3-2.6C96.7,292.6,94.2,288.1,93.8,287.6z"/>
		<path class="st8" d="M96.4,293c0,2.1-5.7,4.2-11.6,4.2c-5.9,0-10.8-2-10.8-4.5c0-2.1,5.2-4,11.2-4C91.1,288.7,96.4,290.9,96.4,293
			z"/>
		<path class="st5" d="M89.7,294.2c0,0.6-1.9,1.2-4.2,1.2s-4.2-0.5-4.2-1.2c0-0.6,1.9-1.2,4.2-1.2C87.8,293,89.7,293.5,89.7,294.2z"
			/>
		<path class="st8" d="M105.5,287.6c-0.3-0.4,0.6-1.6,2-2.7s2.8-1.7,3.1-1.3c0.3,0.4-0.6,1.6-2,2.7S105.8,288,105.5,287.6z"/>
		<path class="st8" d="M107.3,295.9c-0.3-0.4,0.6-1.6,2-2.7s2.8-1.7,3.1-1.3c0.3,0.4-0.6,1.6-2,2.7S107.6,296.3,107.3,295.9z"/>
		<path class="st8" d="M68.7,305.8c-0.9,2.1-7,2.1-12.4-0.1s-9.2-6.1-8.2-8.5c0.9-2.1,6.5-2.1,12,0.2
			C65.5,299.5,69.6,303.7,68.7,305.8z"/>
		<path class="st5" d="M62.1,304.5c-0.3,0.6-2.2,0.5-4.4-0.4c-2.2-0.9-3.7-2.1-3.4-2.8c0.3-0.6,2.2-0.5,4.4,0.4
			C60.8,302.6,62.4,303.8,62.1,304.5z"/>
		<path class="st8" d="M36,267.7c-1.1,0.4-1.9,1.3-2.4,2.5c-0.5,2,0,4.5,0.4,6c0.7,2.7,1.8,6.4,3.7,8.9c2.1,2,4.4,3,6,2.3
			c2.8-1.1,3.8-7,1.7-12.1C43.3,270.2,38.8,266.6,36,267.7z"/>
		<path class="st5" d="M40,282.3c-0.9,0.3-2.3-1.3-3-3.5s-0.5-4.3,0.4-4.6s2.3,1.3,3,3.5C41.1,279.9,41,282,40,282.3z"/>
		<path class="st5" d="M65,277.5c-1.1,0.8-3.1-0.1-4.3-2c-1.3-1.9-1.3-4-0.2-4.8s3.1,0.1,4.3,2S66.1,276.7,65,277.5z"/>
		<path class="st8" d="M96.5,305c0.4,1.9-3.9,4.1-9.3,4.9s-9.7-0.1-10-1.6c-0.2-1.5,3.5-3.7,8.9-4.5C91.5,303,96.2,303.5,96.5,305z"
			/>
		<path class="st5" d="M90.9,307.5c0.1,0.5-1.6,1.1-3.7,1.4c-2.1,0.3-3.9,0.2-4-0.3s1.6-1.1,3.7-1.4C89,306.9,90.8,307,90.9,307.5z"
			/>
		<path class="st8" d="M60.2,219.3c-1.3,1.1-1.3,1.7-1.5,2.4c-0.5,1.3-0.8,5.7,2.5,5.2c2.6-0.4,3.2-4.5,2.7-6.2
			C63.5,218.9,61.5,218.2,60.2,219.3z"/>
		<path class="st8" d="M68,193.5c-1.3,0.7-1.5,1.4-1.9,2c-0.8,1.1-2.5,5.2,0.1,5.3c2,0.1,3.8-3.6,4-5.3
			C70.5,193.7,69.2,192.7,68,193.5z"/>
		<path class="st8" d="M38.6,215.7c-1.2,1-1.2,1.7-1.5,2.3c-0.5,1.3-1.3,5.6,1.5,5.2c2.1-0.3,3-4.3,2.9-6
			C41.2,215.4,39.7,214.7,38.6,215.7z"/>
		<path class="st8" d="M51,185.2c-1.2,0.7-1.5,1.4-1.9,1.9c-0.8,1.1-2.7,5.1-0.5,5.2c1.8,0.1,3.7-3.5,4.1-5.2
			C53.1,185.4,52.2,184.5,51,185.2z"/>
		<path class="st8" d="M98.4,167.6c0.8,0.4,3.1,0.7,3.7,0.1c1.2-1.3-3.1-2.4-4.4-1.9C96.1,166.4,97.6,167.3,98.4,167.6z"/>
		<path class="st8" d="M114.9,179.9c0.3,0.9,1.3,2.9,2,3.1c1.4,0.5-0.4-3.6-1.4-4.5C114.3,177.4,114.7,179.1,114.9,179.9z"/>
		<path class="st8" d="M109.4,186.4c0.3,0.7,1.3,2.2,1.9,2.2c1.3,0.1-0.5-3-1.4-3.5C108.8,184.5,109.2,185.8,109.4,186.4z"/>
		<path class="st8" d="M97.3,178.2c0.8,0.4,3.1,0.7,3.7,0.1c1.3-1.3-3.1-2.4-4.4-1.9C95,177,96.6,177.8,97.3,178.2z"/>
		<path class="st8" d="M112.1,203.7c0.5,0.8,1.4,1.1,2.3,0.8c1.1-0.4,1.6-1.7,1.9-2.7c0.4-1.4-0.1-7.1-3.4-6.3
			C110.8,196,111,201.8,112.1,203.7z"/>
		<path class="st6" d="M114.6,204.6c1.1-0.5,1.5-1.7,1.8-2.7c0.4-1.2,0.1-5.6-2.1-6.4l0,0c-2.2,0.5-2,6.3-0.8,8.2
			C113.7,204.1,114.1,204.4,114.6,204.6z"/>
		<path class="st8" d="M114.4,199.2c-0.1,0.6-0.1,2.1,0.3,2.4c0.8,0.7,1.1-2.2,0.7-3C114.9,197.7,114.5,198.7,114.4,199.2z"/>
		<path class="st8" d="M114.8,211.2c-0.2,0.3-0.5,1.3-0.4,1.5c0.3,0.6,1-1.1,1-1.7C115.4,210.3,115,210.9,114.8,211.2z"/>
		<path class="st8" d="M113.7,210c0.9-1.7,1.6-1.9,1.7-1.9c-0.8-0.7-2-1-2.7-0.2c-1.1,1.3-1.7,3.6-1.8,5.3c-0.1,1.2,1.1,1.9,2.2,1.6
			c-0.2-0.2-0.6-0.7-0.4-1.6C112.9,211.8,113.1,211,113.7,210z"/>
		<path class="st6" d="M107.4,223.1c0.1,0,0.3,0,0.4,0c1.7,0,3.1-1.9,3.6-3.3c0.2-0.5,0.2-0.9,0.2-1.3
			C110.9,219.8,109.5,221.6,107.4,223.1z"/>
	</g>
	<path class="st0" d="M197.7,290.6c-11.4-3.9-22.8-11.3-28.5-22.1c-0.2-0.4-1-0.1-0.7,0.4c6.4,12,14.8,21.2,28.2,25.1
		C199,294.6,200.1,291.4,197.7,290.6z"/>
	<path class="st1" d="M227.2,82.8c-4-12.5-0.3-22.4,4.3-28.2c1.8-2.3,5.6-5.2,8.6-6.3c4.4-1.6,6,0.5,8.2-0.9c1.6-1,0.3-2.5-0.4-2.6
		c-4.6-0.6-8.8-0.3-12.7,0.9c-18.4,5.5-27.1,29-15.6,46.8C222.4,96.8,229,88.3,227.2,82.8z"/>
	<path class="st4" d="M157.8,54.3c-5.4-15.5-28.6-33.2-45.9-39.5c-13.8-5-36.4-8.6-51-2.9l-7.8,11.7c0.9,0.2,2.2,0.1,4-0.2
		c15.2-3.3,30.8-4.3,44.4-2.4c16.7,2.2,36.8,13.7,48.2,27.6C157.4,57.7,161.5,62.6,157.8,54.3z"/>
	<path class="st4" d="M267.5,235.5c-1.4-9.8-10.8-18-22-18.1c-11.2,0-18.2,8.4-19.7,17.7c0,0.3,0.5,0.4,0.6,0.1
		c1.3-8.1,10.1-14,19.3-14C260.5,221.2,267.8,237.7,267.5,235.5z"/>
	<path class="st4" d="M303.9,126.5c-5.9-7.1-12.9-13.1-23.2-13.8c-11.1-0.8-22.2,4.4-29.9,11.5c-3,2.7,3.1,3.5,5.1,1.9
		c12.9-9.9,35.9-9.8,47.3,0.7C303.3,127.1,304.1,126.8,303.9,126.5z"/>
	<path class="st4" d="M-5.4,200.7c-9.9-6.8-20.1-12.4-32.5-10.1c-10.6,1.9-20.7,10.3-27.7,18c-0.2,0.3,0.4,0.4,0.5,0.2
		c7.6-7.8,15.8-12.8,26.8-14c10.7-1.2,19.8,3.5,28.8,8.7C-7.5,204.6-2.3,202.8-5.4,200.7z"/>
</g>
</svg>
